<svg width="2693" height="1031" viewBox="0 0 2693 1031" fill="none" xmlns="http://www.w3.org/2000/svg">
<path d="M1443.45 604.062H1509.42V331.372H1443.45V438.195H1340.84V331.372H1274.88V604.062H1340.84V491.801H1443.45V604.062Z" fill="#0261FE"/>
<path d="M1651.93 437.418C1673.92 437.418 1692.44 451.014 1692.44 474.709H1609.89C1613.74 450.625 1630.33 437.418 1651.93 437.418ZM1754.93 532.199H1684.72C1679.32 543.853 1668.91 553.175 1650.39 553.175C1629.17 553.175 1611.81 539.968 1609.5 511.611H1758.79C1759.56 505.008 1759.94 498.404 1759.94 492.189C1759.94 426.153 1715.58 384.201 1652.7 384.201C1588.67 384.201 1543.92 426.93 1543.92 495.685C1543.92 564.44 1589.44 607.169 1652.7 607.169C1706.32 607.169 1744.51 574.54 1754.93 532.199Z" fill="#0261FE"/>
<path d="M1794.74 604.062H1860.71V316.611H1794.74V604.062Z" fill="#0261FE"/>
<path d="M1974.48 417.996V387.309H1908.51V707.388H1974.48V573.763C1986.43 592.02 2009.19 607.169 2040.83 607.169C2093.68 607.169 2135.72 563.663 2135.72 495.297C2135.72 426.93 2093.68 384.201 2040.83 384.201C2009.19 384.201 1986.43 398.962 1974.48 417.996ZM2068.6 495.297C2068.6 529.868 2046.23 549.291 2021.15 549.291C1996.46 549.291 1974.09 530.257 1974.09 495.685C1974.09 461.113 1996.46 442.08 2021.15 442.08C2046.23 442.08 2068.6 460.725 2068.6 495.297Z" fill="#0261FE"/>
<path d="M2265.23 437.418C2287.21 437.418 2305.73 451.014 2305.73 474.709H2223.18C2227.04 450.625 2243.62 437.418 2265.23 437.418ZM2368.22 532.199H2298.01C2292.61 543.853 2282.2 553.175 2263.68 553.175C2242.47 553.175 2225.11 539.968 2222.79 511.611H2372.08C2372.85 505.008 2373.24 498.404 2373.24 492.189C2373.24 426.153 2328.87 384.201 2266 384.201C2201.96 384.201 2157.21 426.93 2157.21 495.685C2157.21 564.44 2202.73 607.169 2266 607.169C2319.62 607.169 2357.81 574.54 2368.22 532.199Z" fill="#0261FE"/>
<path d="M2474 503.454C2474 466.163 2492.13 455.287 2523.38 455.287H2541.51V384.978C2512.58 384.978 2489.05 400.516 2474 423.434V387.309H2408.04V604.062H2474V503.454Z" fill="#0261FE"/>
<path d="M2583.45 528.703C2583.45 585.028 2614.7 604.062 2659.45 604.062H2693.01V547.737H2669.48C2654.82 547.737 2649.42 542.299 2649.42 529.48V442.468H2692.62V387.309H2649.42V334.48H2583.45V387.309H2557.22V442.468H2583.45V528.703Z" fill="#0261FE"/>
<rect x="0.130859" width="1024" height="1024" rx="512" fill="url(#paint0_linear_502_13)"/>
<g filter="url(#filter0_d_502_13)">
<path fill-rule="evenodd" clip-rule="evenodd" d="M295.893 295.761C266.191 325.462 242.631 360.722 226.557 399.529C210.483 438.335 202.21 479.928 202.21 521.932C202.21 563.935 210.483 605.528 226.557 644.334C242.631 683.141 266.191 718.401 295.893 748.102C325.594 777.804 360.854 801.364 399.661 817.438C438.467 833.512 480.06 841.785 522.063 841.785C564.067 841.785 605.66 833.512 644.466 817.438L663.297 862.9C618.521 881.448 570.529 890.994 522.063 890.994C473.597 890.994 425.606 881.448 380.829 862.9C336.053 844.353 295.368 817.168 261.097 782.898C226.826 748.627 199.642 707.942 181.094 663.166C162.547 618.389 153.001 570.398 153.001 521.932C153.001 473.466 162.547 425.474 181.095 380.698C199.642 335.921 226.827 295.236 261.097 260.965C295.368 226.695 336.053 199.51 380.829 180.963C425.606 162.416 473.597 152.87 522.063 152.87C570.529 152.87 618.521 162.416 663.297 180.963C708.074 199.51 748.759 226.695 783.03 260.965C817.3 295.236 844.485 335.921 863.032 380.698C881.579 425.474 891.125 473.466 891.125 521.932C891.125 570.398 881.579 618.389 863.032 663.166L817.57 644.334C833.644 605.528 841.917 563.935 841.917 521.932C841.917 479.928 833.644 438.335 817.57 399.529C801.495 360.722 777.935 325.462 748.234 295.761C718.533 266.06 683.273 242.5 644.466 226.425C605.66 210.351 564.067 202.078 522.063 202.078C480.06 202.078 438.467 210.351 399.661 226.425C360.854 242.499 325.594 266.06 295.893 295.761Z" fill="white"/>
<path fill-rule="evenodd" clip-rule="evenodd" d="M365.483 365.352C344.921 385.914 328.61 410.325 317.481 437.191C306.353 464.057 300.626 492.852 300.626 521.932C300.626 551.011 306.353 579.806 317.481 606.672C328.61 633.538 344.921 657.949 365.483 678.511C386.045 699.074 410.456 715.385 437.322 726.513C464.188 737.641 492.983 743.369 522.063 743.369C551.142 743.369 579.937 737.641 606.803 726.513L613.095 723.907L743.38 743.249L724.038 612.964L726.644 606.672C737.772 579.806 743.5 551.011 743.5 521.932C743.5 492.852 737.772 464.057 726.644 437.191C715.516 410.325 699.205 385.914 678.642 365.352C658.08 344.79 633.669 328.479 606.803 317.35C579.937 306.222 551.142 300.494 522.063 300.494C492.983 300.494 464.188 306.222 437.322 317.35C410.456 328.479 386.045 344.79 365.483 365.352ZM272.019 418.36C285.62 385.524 305.556 355.688 330.688 330.556C355.819 305.425 385.655 285.489 418.491 271.888C451.327 258.287 486.521 251.286 522.063 251.286C557.604 251.286 592.798 258.287 625.634 271.888C658.471 285.489 688.306 305.425 713.438 330.556C738.57 355.688 758.505 385.524 772.107 418.36C785.708 451.196 792.708 486.39 792.708 521.932C792.708 555.152 786.592 588.068 774.687 619.039L801.801 801.67L619.17 774.556C588.199 786.461 555.283 792.577 522.063 792.577C486.521 792.577 451.327 785.577 418.491 771.975C385.655 758.374 355.819 738.439 330.688 713.307C305.556 688.175 285.62 658.339 272.019 625.503C258.418 592.667 251.417 557.473 251.417 521.932C251.417 486.39 258.418 451.196 272.019 418.36Z" fill="white"/>
<path d="M453.169 521.933C453.169 538.239 439.95 551.458 423.644 551.458C407.337 551.458 394.119 538.239 394.119 521.933C394.119 505.626 407.337 492.408 423.644 492.408C439.95 492.408 453.169 505.626 453.169 521.933Z" fill="white"/>
<path d="M551.585 521.933C551.585 538.239 538.366 551.458 522.06 551.458C505.754 551.458 492.535 538.239 492.535 521.933C492.535 505.626 505.754 492.408 522.06 492.408C538.366 492.408 551.585 505.626 551.585 521.933Z" fill="white"/>
<path d="M650.002 521.933C650.002 538.239 636.783 551.458 620.477 551.458C604.17 551.458 590.952 538.239 590.952 521.933C590.952 505.626 604.17 492.408 620.477 492.408C636.783 492.408 650.002 505.626 650.002 521.933Z" fill="white"/>
</g>
<defs>
<filter id="filter0_d_502_13" x="53.0013" y="92.8696" width="938.124" height="938.124" filterUnits="userSpaceOnUse" color-interpolation-filters="sRGB">
<feFlood flood-opacity="0" result="BackgroundImageFix"/>
<feColorMatrix in="SourceAlpha" type="matrix" values="0 0 0 0 0 0 0 0 0 0 0 0 0 0 0 0 0 0 127 0" result="hardAlpha"/>
<feOffset dy="40"/>
<feGaussianBlur stdDeviation="50"/>
<feColorMatrix type="matrix" values="0 0 0 0 0 0 0 0 0 0 0 0 0 0 0 0 0 0 0.3 0"/>
<feBlend mode="normal" in2="BackgroundImageFix" result="effect1_dropShadow_502_13"/>
<feBlend mode="normal" in="SourceGraphic" in2="effect1_dropShadow_502_13" result="shape"/>
</filter>
<linearGradient id="paint0_linear_502_13" x1="512.131" y1="512" x2="512.131" y2="1024" gradientUnits="userSpaceOnUse">
<stop stop-color="#0261FE"/>
<stop offset="1" stop-color="#013C9C"/>
</linearGradient>
</defs>
</svg>
