<svg width="33" height="31" viewBox="0 0 33 31" fill="none" xmlns="http://www.w3.org/2000/svg">
<g filter="url(#filter0_d_10983_14634)">
<path d="M15.3582 25.8545C16.0415 26.3423 16.9585 26.3423 17.6418 25.8545C21.057 23.4165 24.3274 20.6117 26.5898 17.0224C27.7232 15.2242 28.1983 13.7699 28.3851 12.5808C28.4605 12.1621 28.5 11.7302 28.5 11.2886C28.5 7.45305 25.5233 4.34375 21.8514 4.34375C19.657 4.34375 17.7109 5.4542 16.5 7.16648C15.2891 5.4542 13.343 4.34375 11.1486 4.34375C7.4767 4.34375 4.5 7.45305 4.5 11.2886C4.5 11.7302 4.53946 12.1621 4.61489 12.5808C4.80175 13.7699 5.27683 15.2242 6.41023 17.0224C8.67258 20.6117 11.943 23.4165 15.3582 25.8545Z" fill="#FBFBFB"/>
<path d="M15.3582 22.9353C16.0415 23.4231 16.9585 23.4231 17.6418 22.9353C21.4014 20.9071 22.7535 20.2311 26.5898 17.0224C27.7232 15.2242 28.1983 13.7699 28.3851 12.5808C28.4605 12.1621 28.5 11.7302 28.5 11.2886C28.5 7.45305 25.5233 4.34375 21.8514 4.34375C19.657 4.34375 17.7109 5.4542 16.5 7.16648C15.2891 5.4542 13.343 4.34375 11.1486 4.34375C7.4767 4.34375 4.5 7.45305 4.5 11.2886C4.5 11.7302 4.53946 12.1621 4.61489 12.5808C4.80175 13.7699 5.27683 15.2242 6.41023 17.0224C10.5845 20.2311 11.9366 20.9071 15.3582 22.9353Z" fill="white"/>
</g>
<defs>
<filter id="filter0_d_10983_14634" x="0.5" y="0.67375" width="32" height="29.875" filterUnits="userSpaceOnUse" color-interpolation-filters="sRGB">
<feFlood flood-opacity="0" result="BackgroundImageFix"/>
<feColorMatrix in="SourceAlpha" type="matrix" values="0 0 0 0 0 0 0 0 0 0 0 0 0 0 0 0 0 0 127 0" result="hardAlpha"/>
<feOffset dy="0.33"/>
<feGaussianBlur stdDeviation="2"/>
<feColorMatrix type="matrix" values="0 0 0 0 0 0 0 0 0 0 0 0 0 0 0 0 0 0 0.1 0"/>
<feBlend mode="normal" in2="BackgroundImageFix" result="effect1_dropShadow_10983_14634"/>
<feBlend mode="normal" in="SourceGraphic" in2="effect1_dropShadow_10983_14634" result="shape"/>
</filter>
</defs>
</svg>
