<svg width="22" height="24" viewBox="0 0 22 24" fill="none" xmlns="http://www.w3.org/2000/svg">
<path d="M15.6667 10.668H6.33333C5.69167 10.668 5.16667 11.193 5.16667 11.8346C5.16667 12.4763 5.69167 13.0013 6.33333 13.0013H15.6667C16.3083 13.0013 16.8333 12.4763 16.8333 11.8346C16.8333 11.193 16.3083 10.668 15.6667 10.668ZM19.1667 2.5013H18V1.33464C18 0.692969 17.475 0.167969 16.8333 0.167969C16.1917 0.167969 15.6667 0.692969 15.6667 1.33464V2.5013H6.33333V1.33464C6.33333 0.692969 5.80833 0.167969 5.16667 0.167969C4.525 0.167969 4 0.692969 4 1.33464V2.5013H2.83333C1.53833 2.5013 0.5 3.5513 0.5 4.83464V21.168C0.5 22.4513 1.53833 23.5013 2.83333 23.5013H19.1667C20.45 23.5013 21.5 22.4513 21.5 21.168V4.83464C21.5 3.5513 20.45 2.5013 19.1667 2.5013ZM18 21.168H4C3.35833 21.168 2.83333 20.643 2.83333 20.0013V8.33464H19.1667V20.0013C19.1667 20.643 18.6417 21.168 18 21.168ZM12.1667 15.3346H6.33333C5.69167 15.3346 5.16667 15.8596 5.16667 16.5013C5.16667 17.143 5.69167 17.668 6.33333 17.668H12.1667C12.8083 17.668 13.3333 17.143 13.3333 16.5013C13.3333 15.8596 12.8083 15.3346 12.1667 15.3346Z" fill="#0261FE"/>
</svg>
