<svg width="17" height="17" viewBox="0 0 17 17" fill="none" xmlns="http://www.w3.org/2000/svg">
<path fill-rule="evenodd" clip-rule="evenodd" d="M8.50005 0.25C5.07947 0.25 2.30654 2.93629 2.30654 6.25V10.5C2.30654 10.6425 2.16295 10.9481 1.71296 11.275C1.5527 11.3914 1.38435 11.4873 1.22073 11.5616C0.843616 11.7329 0.5 12.0858 0.5 12.5C0.5 12.9142 0.835787 13.25 1.25 13.25H15.75C16.1642 13.25 16.5 12.9142 16.5 12.5C16.5 12.0858 16.1564 11.7454 15.7699 11.5966C15.5978 11.5303 15.425 11.4431 15.2665 11.3356C14.8643 11.0628 14.6936 10.7627 14.6936 10.5V6.25023C14.6936 2.93656 11.9207 0.25 8.50005 0.25ZM13.5435 11.75H3.39472C3.66374 11.3948 3.85492 10.9721 3.85492 10.5V6.25C3.85492 3.76472 5.93461 1.75 8.50005 1.75C11.0654 1.75 13.1452 3.7649 13.1452 6.25023V10.5C13.1452 10.9807 13.3039 11.3989 13.5435 11.75Z" fill="#86878B"/>
<path d="M8.5 16.75C9.60457 16.75 10.5 16.1045 10.5 14.9999C10.5 14.5001 9.60457 14.5 8.5 14.5C7.39543 14.5 6.5 14.5001 6.5 15C6.5 16.1046 7.39543 16.75 8.5 16.75Z" fill="#86878B"/>
</svg>
