<svg width="18" height="17" viewBox="0 0 18 17" fill="none" xmlns="http://www.w3.org/2000/svg">
<path d="M7.39935 7.54935C7.44102 7.27435 7.53268 7.03268 7.64935 6.82435C7.76602 6.61602 7.93268 6.44102 8.14102 6.30768C8.34102 6.18268 8.59102 6.12435 8.89935 6.11602C9.09102 6.12435 9.26602 6.15768 9.42435 6.22435C9.59102 6.29935 9.74102 6.39935 9.85768 6.52435C9.97435 6.64935 10.066 6.79935 10.141 6.96602C10.216 7.13268 10.2493 7.31602 10.2577 7.49935H11.7493C11.7327 7.10768 11.6577 6.74935 11.516 6.42435C11.3743 6.09935 11.1827 5.81602 10.9327 5.58268C10.6827 5.34935 10.3827 5.16602 10.0327 5.03268C9.68268 4.89935 9.29935 4.84102 8.87435 4.84102C8.33268 4.84102 7.85768 4.93268 7.45768 5.12435C7.05768 5.31602 6.72435 5.56602 6.45768 5.89102C6.19102 6.21602 5.99102 6.59102 5.86602 7.02435C5.74102 7.45768 5.66602 7.90768 5.66602 8.39102V8.61602C5.66602 9.09935 5.73268 9.54935 5.85768 9.98268C5.98268 10.416 6.18268 10.791 6.44935 11.1077C6.71602 11.4243 7.04935 11.6827 7.44935 11.866C7.84935 12.0494 8.32435 12.1493 8.86602 12.1493C9.25768 12.1493 9.62435 12.0827 9.96602 11.9577C10.3077 11.8327 10.6077 11.6577 10.866 11.4327C11.1243 11.2077 11.3327 10.9493 11.4827 10.6493C11.6327 10.3493 11.7243 10.0327 11.7327 9.69102H10.241C10.2327 9.86602 10.191 10.0243 10.116 10.1743C10.041 10.3243 9.94102 10.4493 9.81602 10.5577C9.69102 10.666 9.54935 10.7493 9.38268 10.8077C9.22435 10.866 9.05768 10.8827 8.88268 10.891C8.58268 10.8827 8.33268 10.8243 8.14102 10.6993C7.93268 10.566 7.76602 10.391 7.64935 10.1827C7.53268 9.97435 7.44102 9.72435 7.39935 9.44935C7.35768 9.17435 7.33268 8.89102 7.33268 8.61602V8.39102C7.33268 8.09935 7.35768 7.82435 7.39935 7.54935ZM8.99935 0.166016C4.39935 0.166016 0.666016 3.89935 0.666016 8.49935C0.666016 13.0993 4.39935 16.8327 8.99935 16.8327C13.5993 16.8327 17.3327 13.0993 17.3327 8.49935C17.3327 3.89935 13.5993 0.166016 8.99935 0.166016ZM8.99935 15.166C5.32435 15.166 2.33268 12.1743 2.33268 8.49935C2.33268 4.82435 5.32435 1.83268 8.99935 1.83268C12.6743 1.83268 15.666 4.82435 15.666 8.49935C15.666 12.1743 12.6743 15.166 8.99935 15.166Z" fill="#999999"/>
</svg>
