<svg width="13" height="13" viewBox="0 0 13 13" fill="none" xmlns="http://www.w3.org/2000/svg">
<path fill-rule="evenodd" clip-rule="evenodd" d="M4.875 1.08333C6.96908 1.08333 8.66667 2.78092 8.66667 4.875C8.66667 6.96908 6.96908 8.66667 4.875 8.66667C4.41987 8.66667 3.98462 8.58672 3.58175 8.44056C3.40417 8.37613 3.2067 8.36173 3.01409 8.40903C2.49675 8.5361 1.96861 8.61671 1.43599 8.64965C1.63628 8.12194 1.70548 7.55146 1.63507 6.98793C1.61941 6.86257 1.57841 6.75264 1.5297 6.66167C1.245 6.12987 1.08333 5.52212 1.08333 4.875C1.08333 2.78092 2.78092 1.08333 4.875 1.08333ZM9.75 4.875C9.75 2.18261 7.56739 0 4.875 0C2.18261 0 0 2.18261 0 4.875C0 5.69655 0.203655 6.4721 0.563666 7.15239C0.619858 7.65389 0.515733 8.16193 0.263971 8.60251L0.241754 8.64139C-0.0405169 9.13537 0.316162 9.75 0.885102 9.75C1.68019 9.75 2.47072 9.65526 3.24021 9.46897C3.75193 9.65108 4.30249 9.75 4.875 9.75C7.56739 9.75 9.75 7.56739 9.75 4.875ZM11.0257 4.47315C10.7971 4.66604 10.7681 5.00777 10.961 5.23644C11.5576 5.9437 11.9167 6.8563 11.9167 7.85417C11.9167 8.5489 11.7427 9.2014 11.4365 9.77208C11.3874 9.86358 11.3466 9.97338 11.3308 10.098C11.2534 10.7105 11.3327 11.3309 11.5587 11.9016C10.9703 11.8685 10.3868 11.7809 9.81565 11.6401C9.62286 11.5926 9.42487 11.6069 9.24668 11.6719C8.81305 11.8301 8.34432 11.9167 7.85417 11.9167C6.8563 11.9167 5.9437 11.5576 5.23644 10.961C5.00777 10.7681 4.66604 10.7971 4.47315 11.0257C4.28026 11.2544 4.30926 11.5961 4.53792 11.789C5.43328 12.5443 6.59121 13 7.85417 13C8.46208 13 9.04648 12.8944 9.58927 12.7C10.4073 12.8989 11.2479 13 12.0934 13C12.6719 13 13.0346 12.375 12.7476 11.8728L12.724 11.8315C12.4518 11.3552 12.3399 10.8058 12.402 10.2637C12.7839 9.54433 13 8.7237 13 7.85417C13 6.59121 12.5443 5.43328 11.789 4.53792C11.5961 4.30926 11.2544 4.28026 11.0257 4.47315ZM2.70833 5.41667C3.00749 5.41667 3.25 5.17415 3.25 4.875C3.25 4.57585 3.00749 4.33333 2.70833 4.33333C2.40918 4.33333 2.16667 4.57585 2.16667 4.875C2.16667 5.17415 2.40918 5.41667 2.70833 5.41667ZM5.41667 4.875C5.41667 5.17415 5.17415 5.41667 4.875 5.41667C4.57585 5.41667 4.33333 5.17415 4.33333 4.875C4.33333 4.57585 4.57585 4.33333 4.875 4.33333C5.17415 4.33333 5.41667 4.57585 5.41667 4.875ZM7.04167 5.41667C7.34082 5.41667 7.58333 5.17415 7.58333 4.875C7.58333 4.57585 7.34082 4.33333 7.04167 4.33333C6.74251 4.33333 6.5 4.57585 6.5 4.875C6.5 5.17415 6.74251 5.41667 7.04167 5.41667Z" fill="#999999"/>
</svg>
