<svg width="9" height="8" viewBox="0 0 9 8" fill="none" xmlns="http://www.w3.org/2000/svg">
<path d="M8.4995 7.041C8.4995 7.3965 8.703 7.7045 8.9995 7.855V7.9795C8.70674 8.02028 8.40847 7.9905 8.12955 7.89266C7.85063 7.79482 7.59913 7.63173 7.396 7.417C7.18506 7.47293 6.96773 7.50117 6.7495 7.501C5.507 7.501 4.4995 6.6055 4.4995 5.501C4.4995 4.3965 5.507 3.501 6.7495 3.501C7.992 3.501 8.9995 4.3965 8.9995 5.501C8.9995 5.9335 8.845 6.3335 8.5825 6.661C8.52755 6.78031 8.49923 6.90965 8.4995 7.041ZM1.8015 1.7285C1.284 2.149 0.9995 2.6895 0.9995 3.2505C0.9995 3.5655 1.087 3.8705 1.2595 4.158C1.4375 4.454 1.7045 4.725 2.033 4.941C2.27 5.097 2.4295 5.347 2.472 5.6275C2.486 5.721 2.495 5.8155 2.4985 5.9095C2.557 5.861 2.6135 5.809 2.6695 5.7535C2.7774 5.64559 2.90856 5.5638 3.05295 5.5144C3.19733 5.465 3.35111 5.4493 3.5025 5.4685C3.666 5.4895 3.8335 5.5 3.9995 5.5V6.5C3.7875 6.5 3.5795 6.4865 3.3765 6.4605C2.5175 7.3195 1.4915 7.474 0.5 7.4965V7.286C1.0355 7.0235 1.5 6.546 1.5 6C1.49992 5.92501 1.49424 5.85014 1.483 5.776C0.5785 5.18 0 4.27 0 3.25C0 1.455 1.791 0 4 0C6.1755 0 7.945 1.411 7.9985 3.168C7.67164 3.02308 7.32178 2.93693 6.965 2.9135C6.875 2.4755 6.6105 2.0635 6.1975 1.728C5.90892 1.49701 5.58193 1.31862 5.2315 1.201C4.843 1.0675 4.4285 1 3.9995 1C3.5705 1 3.156 1.0675 2.7675 1.201C2.4025 1.3265 2.0775 1.5035 1.8015 1.728V1.7285Z" fill="#999999"/>
</svg>
