<svg width="15" height="17" viewBox="0 0 15 17" fill="none" xmlns="http://www.w3.org/2000/svg">
<path fill-rule="evenodd" clip-rule="evenodd" d="M11.9191 4.94814C11.9191 7.40479 9.94061 9.39629 7.5 9.39629C5.05939 9.39629 3.08088 7.40479 3.08088 4.94814C3.08088 2.4915 5.05939 0.5 7.5 0.5C9.94061 0.5 11.9191 2.4915 11.9191 4.94814ZM10.382 4.94814C10.382 6.5503 9.0917 7.84911 7.5 7.84911C5.9083 7.84911 4.61797 6.5503 4.61797 4.94814C4.61797 3.34599 5.9083 2.04718 7.5 2.04718C9.0917 2.04718 10.382 3.34599 10.382 4.94814Z" fill="#86878B"/>
<path d="M0.515767 15.7573C0.458183 15.9472 0.563398 16.1459 0.748757 16.2138L1.46595 16.4765C1.68364 16.5563 1.92054 16.4249 1.98848 16.2019C2.71162 13.8291 4.90564 12.1039 7.49999 12.1039C10.0943 12.1039 12.2884 13.8291 13.0115 16.2019C13.0795 16.4249 13.3164 16.5563 13.5341 16.4765L14.2512 16.2138C14.4366 16.1459 14.5418 15.9472 14.4842 15.7573C13.5713 12.7467 10.7897 10.5567 7.49999 10.5567C4.21025 10.5567 1.42869 12.7467 0.515767 15.7573Z" fill="#86878B"/>
</svg>
