<svg width="17" height="13" viewBox="0 0 17 13" fill="none" xmlns="http://www.w3.org/2000/svg">
<path d="M16.75 3.5V11C16.75 11.825 16.075 12.5 15.25 12.5H3.25C2.8375 12.5 2.5 12.1625 2.5 11.75C2.5 11.3375 2.8375 11 3.25 11H15.25V3.5C15.25 3.0875 15.5875 2.75 16 2.75C16.4125 2.75 16.75 3.0875 16.75 3.5ZM2.5 9.5C1.255 9.5 0.25 8.495 0.25 7.25V2.75C0.25 1.505 1.255 0.5 2.5 0.5H11.5C12.745 0.5 13.75 1.505 13.75 2.75V8C13.75 8.825 13.075 9.5 12.25 9.5H2.5ZM4.75 5C4.75 6.245 5.755 7.25 7 7.25C8.245 7.25 9.25 6.245 9.25 5C9.25 3.755 8.245 2.75 7 2.75C5.755 2.75 4.75 3.755 4.75 5Z" fill="#999999"/>
</svg>
