<svg width="40" height="40" viewBox="0 0 40 40" fill="none" xmlns="http://www.w3.org/2000/svg">
<mask id="mask0_10962_8529" style="mask-type:alpha" maskUnits="userSpaceOnUse" x="6" y="6" width="28" height="28">
<rect x="6" y="6.41797" width="28" height="26.9811" fill="#9DC8EB"/>
</mask>
<g mask="url(#mask0_10962_8529)">
<rect x="6" y="6.41797" width="28" height="26.9811" fill="#9DC8EB"/>
<ellipse cx="23.3408" cy="12.6288" rx="3.78606" ry="3.64829" fill="#FEF8AE"/>
<path d="M28.5808 22.6348C27.6232 22.6348 26.7217 23.0445 25.9011 23.6442C25.079 24.2449 24.3016 25.0628 23.5822 25.9437C22.8611 26.8267 22.1845 27.7906 21.5693 28.693C21.407 28.9311 21.2496 29.164 21.0968 29.3899C20.6655 30.028 20.2716 30.6106 19.9124 31.0966L19.8184 31.2239V39.1685H48.1813L47.1223 38.3129C44.5265 36.2156 41.9363 33.5228 39.4624 30.951C38.6394 30.0954 37.8293 29.2532 37.0361 28.4508C35.4582 26.8545 33.9452 25.4144 32.5486 24.3718C31.1698 23.3424 29.8205 22.6348 28.5808 22.6348Z" fill="#D6B488"/>
<path d="M28.6162 22.6353C27.6464 22.5648 26.7335 22.9495 25.9083 23.541C25.0825 24.133 24.3028 24.9614 23.5831 25.8572C22.8612 26.7556 22.1836 27.7422 21.5681 28.6625C21.4298 28.8694 21.295 29.0723 21.1636 29.27C20.7054 29.9597 20.2891 30.5861 19.9124 31.0958L19.8184 31.2231V39.1677H44.2132L43.3256 38.3355C40.4129 35.6047 37.97 32.3581 35.8327 29.5176C35.5309 29.1165 35.2351 28.7233 34.945 28.341C33.7805 26.8063 32.6981 25.4329 31.6834 24.4268C30.6858 23.4378 29.6655 22.7115 28.6162 22.6353Z" fill="#C89577"/>
<path d="M13.8152 20.3066C12.8279 20.3066 11.8984 20.7164 11.0524 21.316C10.2049 21.9168 9.40333 22.7347 8.66168 23.6156C7.91828 24.4986 7.22069 25.4625 6.58643 26.3649C6.41912 26.6029 6.2568 26.8358 6.09934 27.0618C5.65461 27.6999 5.24854 28.2825 4.87823 28.7685L4.78125 28.8957V36.8404H34.0228L32.931 35.9848C30.2548 33.8875 27.5843 31.1947 25.0338 28.6229C24.1853 27.7673 23.3501 26.9251 22.5324 26.1227C20.9056 24.5264 19.3457 23.0863 17.9059 22.0437C16.4843 21.0143 15.0932 20.3067 13.8152 20.3066Z" fill="#D6B488"/>
<path d="M13.8516 20.3091C12.8518 20.2386 11.9106 20.6233 11.0599 21.2148C10.2085 21.8068 9.40465 22.6352 8.66257 23.531C7.91836 24.4294 7.21976 25.416 6.58522 26.3364C6.44259 26.5432 6.3036 26.7461 6.16819 26.9438C5.69572 27.6335 5.26662 28.2599 4.87823 28.7696L4.78125 28.8969V36.8416H29.9318L29.0167 36.0094C26.0138 33.2785 23.4952 30.0319 21.2917 27.1914C20.9805 26.7903 20.6755 26.3972 20.3764 26.0149C19.1759 24.4801 18.06 23.1068 17.0138 22.1007C15.9854 21.1116 14.9334 20.3853 13.8516 20.3091Z" fill="#C89577"/>
</g>
<g filter="url(#filter0_d_10962_8529)">
<rect x="5" y="5.49023" width="30" height="28.8355" rx="3" stroke="white" stroke-width="2"/>
</g>
<defs>
<filter id="filter0_d_10962_8529" x="0" y="0.820234" width="40" height="38.8359" filterUnits="userSpaceOnUse" color-interpolation-filters="sRGB">
<feFlood flood-opacity="0" result="BackgroundImageFix"/>
<feColorMatrix in="SourceAlpha" type="matrix" values="0 0 0 0 0 0 0 0 0 0 0 0 0 0 0 0 0 0 127 0" result="hardAlpha"/>
<feOffset dy="0.33"/>
<feGaussianBlur stdDeviation="2"/>
<feColorMatrix type="matrix" values="0 0 0 0 0 0 0 0 0 0 0 0 0 0 0 0 0 0 0.2 0"/>
<feBlend mode="normal" in2="BackgroundImageFix" result="effect1_dropShadow_10962_8529"/>
<feBlend mode="normal" in="SourceGraphic" in2="effect1_dropShadow_10962_8529" result="shape"/>
</filter>
</defs>
</svg>
