<svg width="18" height="15" viewBox="0 0 18 15" fill="none" xmlns="http://www.w3.org/2000/svg">
<path d="M10.4173 11.0833C10.7423 10.7583 10.7423 10.2417 10.4173 9.91667L8.83398 8.33333H16.5007C16.959 8.33333 17.334 7.95833 17.334 7.5C17.334 7.04167 16.959 6.66667 16.5007 6.66667H8.83398L10.4173 5.08333C10.7423 4.75833 10.7423 4.24167 10.4173 3.91667C10.0923 3.59167 9.57565 3.59167 9.25065 3.91667L6.25898 6.90833C5.93398 7.23333 5.93398 7.75833 6.25898 8.08333L9.25065 11.0833C9.57565 11.4083 10.0923 11.4083 10.4173 11.0833ZM2.33398 1.66667L8.16732 1.66667C8.62565 1.66667 9.00065 1.29167 9.00065 0.833334C9.00065 0.375 8.62565 0 8.16732 0L2.33398 0C1.41732 0 0.667316 0.75 0.667316 1.66667V13.3333C0.667316 14.25 1.41732 15 2.33398 15L8.16732 15C8.62565 15 9.00065 14.625 9.00065 14.1667C9.00065 13.7083 8.62565 13.3333 8.16732 13.3333L2.33398 13.3333L2.33398 1.66667Z" fill="#E74D3D"/>
</svg>
