<svg width="18" height="20" viewBox="0 0 18 20" fill="none" xmlns="http://www.w3.org/2000/svg">
<path d="M12.6667 10.9173H9.91667C9.4125 10.9173 9 11.3298 9 11.834V14.584C9 15.0882 9.4125 15.5007 9.91667 15.5007H12.6667C13.1708 15.5007 13.5833 15.0882 13.5833 14.584V11.834C13.5833 11.3298 13.1708 10.9173 12.6667 10.9173ZM12.6667 1.75065V2.66732H5.33333V1.75065C5.33333 1.24648 4.92083 0.833984 4.41667 0.833984C3.9125 0.833984 3.5 1.24648 3.5 1.75065V2.66732H2.58333C1.56583 2.66732 0.759167 3.49232 0.759167 4.50065L0.75 17.334C0.75 18.3423 1.56583 19.1673 2.58333 19.1673H15.4167C16.425 19.1673 17.25 18.3423 17.25 17.334V4.50065C17.25 3.49232 16.425 2.66732 15.4167 2.66732H14.5V1.75065C14.5 1.24648 14.0875 0.833984 13.5833 0.833984C13.0792 0.833984 12.6667 1.24648 12.6667 1.75065ZM14.5 17.334H3.5C2.99583 17.334 2.58333 16.9215 2.58333 16.4173V7.25065H15.4167V16.4173C15.4167 16.9215 15.0042 17.334 14.5 17.334Z" fill="#999999"/>
</svg>
