<svg width="14" height="17" viewBox="0 0 14 17" fill="none" xmlns="http://www.w3.org/2000/svg">
<path d="M13.1757 4.67435L9.15065 0.649349C8.84232 0.341016 8.41732 0.166016 7.97565 0.166016H2.00065C1.08398 0.166016 0.333984 0.916016 0.333984 1.83268V15.166C0.333984 16.0827 1.08398 16.8327 2.00065 16.8327H12.0007C12.9173 16.8327 13.6673 16.0827 13.6673 15.166V5.85768C13.6673 5.41602 13.4923 4.99102 13.1757 4.67435ZM10.1173 14.116C9.79232 14.441 9.26732 14.441 8.94232 14.116L7.95898 13.1327C6.85065 13.7243 5.45065 13.5743 4.51732 12.641C3.25065 11.3743 3.39232 9.24102 4.93398 8.16602C5.90065 7.49102 7.25065 7.49102 8.22565 8.16602C9.51732 9.06602 9.80898 10.6993 9.13398 11.9577L10.1173 12.941C10.4423 13.266 10.4423 13.791 10.1173 14.116ZM8.66732 5.99935C8.20898 5.99935 7.83398 5.62435 7.83398 5.16602V1.41602L12.4173 5.99935H8.66732Z" fill="#999999"/>
<path d="M6.58398 11.832C7.27434 11.832 7.83398 11.2724 7.83398 10.582C7.83398 9.89168 7.27434 9.33203 6.58398 9.33203C5.89363 9.33203 5.33398 9.89168 5.33398 10.582C5.33398 11.2724 5.89363 11.832 6.58398 11.832Z" fill="#999999"/>
</svg>
