<svg width="14" height="15" viewBox="0 0 14 15" fill="none" xmlns="http://www.w3.org/2000/svg">
<path d="M12.2161 1.6237H9.25531C8.95781 0.802031 8.17865 0.207031 7.25781 0.207031C6.33698 0.207031 5.55781 0.802031 5.26031 1.6237H2.29948C1.52031 1.6237 0.882812 2.2612 0.882812 3.04036V12.957C0.882812 13.7362 1.52031 14.3737 2.29948 14.3737H12.2161C12.9953 14.3737 13.6328 13.7362 13.6328 12.957V3.04036C13.6328 2.2612 12.9953 1.6237 12.2161 1.6237ZM7.25781 1.6237C7.6474 1.6237 7.96615 1.94245 7.96615 2.33203C7.96615 2.72161 7.6474 3.04036 7.25781 3.04036C6.86823 3.04036 6.54948 2.72161 6.54948 2.33203C6.54948 1.94245 6.86823 1.6237 7.25781 1.6237ZM7.96615 11.5404H4.42448C4.0349 11.5404 3.71615 11.2216 3.71615 10.832C3.71615 10.4424 4.0349 10.1237 4.42448 10.1237H7.96615C8.35573 10.1237 8.67448 10.4424 8.67448 10.832C8.67448 11.2216 8.35573 11.5404 7.96615 11.5404ZM10.0911 8.70703H4.42448C4.0349 8.70703 3.71615 8.38828 3.71615 7.9987C3.71615 7.60912 4.0349 7.29037 4.42448 7.29037H10.0911C10.4807 7.29037 10.7995 7.60912 10.7995 7.9987C10.7995 8.38828 10.4807 8.70703 10.0911 8.70703ZM10.0911 5.8737H4.42448C4.0349 5.8737 3.71615 5.55495 3.71615 5.16536C3.71615 4.77578 4.0349 4.45703 4.42448 4.45703H10.0911C10.4807 4.45703 10.7995 4.77578 10.7995 5.16536C10.7995 5.55495 10.4807 5.8737 10.0911 5.8737Z" fill="#0261FE"/>
</svg>
