<svg width="12" height="12" viewBox="0 0 12 12" fill="none" xmlns="http://www.w3.org/2000/svg">
<path d="M0.75 0.75C0.75 1.1625 1.0875 1.5 1.5 1.5H10.5C10.9125 1.5 11.25 1.1625 11.25 0.75C11.25 0.3375 10.9125 0 10.5 0H1.5C1.0875 0 0.75 0.3375 0.75 0.75ZM2.5575 7.5H3.75V11.25C3.75 11.6625 4.0875 12 4.5 12H7.5C7.9125 12 8.25 11.6625 8.25 11.25V7.5H9.4425C10.11 7.5 10.4475 6.69 9.975 6.2175L6.5325 2.775C6.24 2.4825 5.7675 2.4825 5.475 2.775L2.0325 6.2175C1.56 6.69 1.89 7.5 2.5575 7.5Z" fill="white"/>
</svg>
