<svg width="17" height="15" viewBox="0 0 17 15" fill="none" xmlns="http://www.w3.org/2000/svg">
<path d="M15.166 0.833984H1.83268C0.907682 0.833984 0.174349 1.57565 0.174349 2.50065L0.166016 12.5007C0.166016 13.4257 0.907682 14.1673 1.83268 14.1673H15.166C16.091 14.1673 16.8327 13.4257 16.8327 12.5007V2.50065C16.8327 1.57565 16.091 0.833984 15.166 0.833984ZM14.3327 12.5007H2.66602C2.20768 12.5007 1.83268 12.1257 1.83268 11.6673V7.50065H15.166V11.6673C15.166 12.1257 14.791 12.5007 14.3327 12.5007ZM15.166 4.16732H1.83268V3.33398C1.83268 2.87565 2.20768 2.50065 2.66602 2.50065H14.3327C14.791 2.50065 15.166 2.87565 15.166 3.33398V4.16732Z" fill="#999999"/>
</svg>
