<svg width="17" height="17" viewBox="0 0 17 17" fill="none" xmlns="http://www.w3.org/2000/svg">
<path d="M16.75 8.5L14.92 6.4075L15.175 3.64L12.4675 3.025L11.05 0.625L8.5 1.72L5.95 0.625L4.5325 3.0175L1.825 3.625L2.08 6.4L0.25 8.5L2.08 10.5925L1.825 13.3675L4.5325 13.9825L5.95 16.375L8.5 15.2725L11.05 16.3675L12.4675 13.975L15.175 13.36L14.92 10.5925L16.75 8.5ZM6.535 11.5075L4.75 9.7075C4.4575 9.415 4.4575 8.9425 4.75 8.65L4.8025 8.5975C5.095 8.305 5.575 8.305 5.8675 8.5975L7.075 9.8125L10.9375 5.9425C11.23 5.65 11.71 5.65 12.0025 5.9425L12.055 5.995C12.3475 6.2875 12.3475 6.76 12.055 7.0525L7.615 11.5075C7.3075 11.8 6.835 11.8 6.535 11.5075Z" fill="#999999"/>
</svg>
