<svg width="22" height="18" viewBox="0 0 22 18" fill="none" xmlns="http://www.w3.org/2000/svg">
<path d="M1.72943 17.9986H20.2594C21.0294 17.9986 21.5094 17.1686 21.1294 16.4986L11.8594 0.498594C11.4694 -0.171406 10.5094 -0.171406 10.1294 0.498594L0.859434 16.4986C0.479434 17.1686 0.959434 17.9986 1.72943 17.9986ZM11.9994 14.9986H9.99943V12.9986H11.9994V14.9986ZM10.9994 10.9986C10.4494 10.9986 9.99943 10.5486 9.99943 9.99859V7.99859C9.99943 7.44859 10.4494 6.99859 10.9994 6.99859C11.5494 6.99859 11.9994 7.44859 11.9994 7.99859V9.99859C11.9994 10.5486 11.5494 10.9986 10.9994 10.9986Z" fill="#E74D3D"/>
</svg>
