<svg width="15" height="17" viewBox="0 0 15 17" fill="none" xmlns="http://www.w3.org/2000/svg">
<path d="M10.8333 7.83398H4.16667C3.70833 7.83398 3.33333 8.20898 3.33333 8.66732C3.33333 9.12565 3.70833 9.50065 4.16667 9.50065H10.8333C11.2917 9.50065 11.6667 9.12565 11.6667 8.66732C11.6667 8.20898 11.2917 7.83398 10.8333 7.83398ZM13.3333 2.00065H12.5V1.16732C12.5 0.708984 12.125 0.333984 11.6667 0.333984C11.2083 0.333984 10.8333 0.708984 10.8333 1.16732V2.00065H4.16667V1.16732C4.16667 0.708984 3.79167 0.333984 3.33333 0.333984C2.875 0.333984 2.5 0.708984 2.5 1.16732V2.00065H1.66667C0.741667 2.00065 0 2.75065 0 3.66732V15.334C0 16.2507 0.741667 17.0007 1.66667 17.0007H13.3333C14.25 17.0007 15 16.2507 15 15.334V3.66732C15 2.75065 14.25 2.00065 13.3333 2.00065ZM12.5 15.334H2.5C2.04167 15.334 1.66667 14.959 1.66667 14.5007V6.16732H13.3333V14.5007C13.3333 14.959 12.9583 15.334 12.5 15.334ZM8.33333 11.1673H4.16667C3.70833 11.1673 3.33333 11.5423 3.33333 12.0007C3.33333 12.459 3.70833 12.834 4.16667 12.834H8.33333C8.79167 12.834 9.16667 12.459 9.16667 12.0007C9.16667 11.5423 8.79167 11.1673 8.33333 11.1673Z" fill="#999999"/>
</svg>
