<svg width="14" height="17" viewBox="0 0 14 17" fill="none" xmlns="http://www.w3.org/2000/svg">
<path d="M9.15898 0.657682C8.84232 0.341016 8.41732 0.166016 7.97565 0.166016H2.00065C1.08398 0.166016 0.333984 0.916016 0.333984 1.83268V15.166C0.333984 16.0827 1.07565 16.8327 1.99232 16.8327H12.0007C12.9173 16.8327 13.6673 16.0827 13.6673 15.166V5.85768C13.6673 5.41602 13.4923 4.99102 13.1757 4.68268L9.15898 0.657682ZM9.50065 13.4993H4.50065C4.04232 13.4993 3.66732 13.1243 3.66732 12.666C3.66732 12.2077 4.04232 11.8327 4.50065 11.8327H9.50065C9.95898 11.8327 10.334 12.2077 10.334 12.666C10.334 13.1243 9.95898 13.4993 9.50065 13.4993ZM9.50065 10.166H4.50065C4.04232 10.166 3.66732 9.79102 3.66732 9.33268C3.66732 8.87435 4.04232 8.49935 4.50065 8.49935H9.50065C9.95898 8.49935 10.334 8.87435 10.334 9.33268C10.334 9.79102 9.95898 10.166 9.50065 10.166ZM7.83398 5.16602V1.41602L12.4173 5.99935H8.66732C8.20898 5.99935 7.83398 5.62435 7.83398 5.16602Z" fill="#999999"/>
</svg>
