<svg width="18" height="17" viewBox="0 0 18 17" fill="none" xmlns="http://www.w3.org/2000/svg">
<path d="M6.49935 8.29102C5.92435 8.29102 5.45768 8.75768 5.45768 9.33268C5.45768 9.90768 5.92435 10.3743 6.49935 10.3743C7.07435 10.3743 7.54102 9.90768 7.54102 9.33268C7.54102 8.75768 7.07435 8.29102 6.49935 8.29102ZM11.4993 8.29102C10.9243 8.29102 10.4577 8.75768 10.4577 9.33268C10.4577 9.90768 10.9243 10.3743 11.4993 10.3743C12.0743 10.3743 12.541 9.90768 12.541 9.33268C12.541 8.75768 12.0743 8.29102 11.4993 8.29102ZM8.99935 0.166016C4.39935 0.166016 0.666016 3.89935 0.666016 8.49935C0.666016 13.0993 4.39935 16.8327 8.99935 16.8327C13.5993 16.8327 17.3327 13.0993 17.3327 8.49935C17.3327 3.89935 13.5993 0.166016 8.99935 0.166016ZM8.99935 15.166C5.32435 15.166 2.33268 12.1743 2.33268 8.49935C2.33268 8.25768 2.34935 8.01602 2.37435 7.78268C4.34102 6.90768 5.89935 5.29935 6.71602 3.30768C8.22435 5.44102 10.7077 6.83268 13.516 6.83268C14.166 6.83268 14.791 6.75768 15.391 6.61602C15.566 7.20768 15.666 7.84102 15.666 8.49935C15.666 12.1743 12.6743 15.166 8.99935 15.166Z" fill="#999999"/>
</svg>
