<svg width="15" height="15" viewBox="0 0 15 15" fill="none" xmlns="http://www.w3.org/2000/svg">
<path d="M12.0495 4.52344H2.13281C1.74323 4.52344 1.42448 4.20469 1.42448 3.8151C1.42448 3.42552 1.74323 3.10677 2.13281 3.10677H12.0495C12.4391 3.10677 12.7578 3.42552 12.7578 3.8151C12.7578 4.20469 12.4391 4.52344 12.0495 4.52344ZM10.6328 0.273438H3.54948C3.1599 0.273438 2.84115 0.592187 2.84115 0.981771C2.84115 1.37135 3.1599 1.6901 3.54948 1.6901H10.6328C11.0224 1.6901 11.3411 1.37135 11.3411 0.981771C11.3411 0.592187 11.0224 0.273438 10.6328 0.273438ZM14.1745 7.35677V13.0234C14.1745 13.8026 13.537 14.4401 12.7578 14.4401H1.42448C0.645312 14.4401 0.0078125 13.8026 0.0078125 13.0234V7.35677C0.0078125 6.5776 0.645312 5.9401 1.42448 5.9401H12.7578C13.537 5.9401 14.1745 6.5776 14.1745 7.35677ZM9.35073 9.87844L5.67448 7.87385V12.4993L9.35073 10.5018C9.59865 10.3672 9.59865 10.013 9.35073 9.87844Z" fill="#999999"/>
</svg>
