<svg width="17" height="17" viewBox="0 0 17 17" fill="none" xmlns="http://www.w3.org/2000/svg">
<path fill-rule="evenodd" clip-rule="evenodd" d="M0.25 2.75C0.25 1.64543 1.14543 0.75 2.25 0.75H12.5C13.6046 0.75 14.5 1.64543 14.5 2.75V3.75C15.6046 3.75 16.5 4.64543 16.5 5.75V14.75C16.5 15.8546 15.6046 16.75 14.5 16.75H2.25C1.14543 16.75 0.25 15.8546 0.25 14.75V2.75ZM13 3.75V2.75C13 2.47386 12.7761 2.25 12.5 2.25H2.25C1.97386 2.25 1.75 2.47386 1.75 2.75V3.75H13ZM1.75 5.25V14.75C1.75 15.0261 1.97386 15.25 2.25 15.25H14.5C14.7761 15.25 15 15.0261 15 14.75V12.75H12.5C11.1193 12.75 10 11.6307 10 10.25C10 8.86929 11.1193 7.75 12.5 7.75H15V5.75C15 5.47386 14.7761 5.25 14.5 5.25H1.75ZM15 9.25H12.5C11.9477 9.25 11.5 9.69772 11.5 10.25C11.5 10.8023 11.9477 11.25 12.5 11.25H15V9.25Z" fill="#86878B"/>
</svg>
