<svg width="33" height="31" viewBox="0 0 33 31" fill="none" xmlns="http://www.w3.org/2000/svg">
<g filter="url(#filter0_d_10983_14629)">
<path fill-rule="evenodd" clip-rule="evenodd" d="M16.7223 23.7278C16.6484 23.7289 16.5743 23.7295 16.5 23.7295C9.87258 23.7295 4.5 19.2779 4.5 13.7866C4.5 8.29532 9.87258 3.84375 16.5 3.84375C23.1274 3.84375 28.5 8.29532 28.5 13.7866C28.5 15.1754 28.1564 16.4976 27.5357 17.6982C26.703 19.3956 25.4178 20.9104 24.0237 22.2171C21.8995 24.2082 19.4418 25.7112 17.6916 26.5582C17.2287 26.7823 16.7223 26.4315 16.7223 25.9428V23.7278ZM12.3857 14.3009C12.3857 15.2477 11.6182 16.0152 10.6714 16.0152C9.72465 16.0152 8.95714 15.2477 8.95714 14.3009C8.95714 13.3541 9.72465 12.5866 10.6714 12.5866C11.6182 12.5866 12.3857 13.3541 12.3857 14.3009ZM16.5 16.0152C17.4468 16.0152 18.2143 15.2477 18.2143 14.3009C18.2143 13.3541 17.4468 12.5866 16.5 12.5866C15.5532 12.5866 14.7857 13.3541 14.7857 14.3009C14.7857 15.2477 15.5532 16.0152 16.5 16.0152ZM24.0429 14.3009C24.0429 15.2477 23.2753 16.0152 22.3286 16.0152C21.3818 16.0152 20.6143 15.2477 20.6143 14.3009C20.6143 13.3541 21.3818 12.5866 22.3286 12.5866C23.2753 12.5866 24.0429 13.3541 24.0429 14.3009Z" fill="#FBFBFB"/>
<path fill-rule="evenodd" clip-rule="evenodd" d="M16.5 23.7295C23.1274 23.7295 28.5 19.2779 28.5 13.7866C28.5 8.29532 23.1274 3.84375 16.5 3.84375C9.87258 3.84375 4.5 8.29532 4.5 13.7866C4.5 19.2779 9.87258 23.7295 16.5 23.7295ZM10.6714 16.0152C11.6182 16.0152 12.3857 15.2477 12.3857 14.3009C12.3857 13.3541 11.6182 12.5866 10.6714 12.5866C9.72465 12.5866 8.95714 13.3541 8.95714 14.3009C8.95714 15.2477 9.72465 16.0152 10.6714 16.0152ZM18.2143 14.3009C18.2143 15.2477 17.4468 16.0152 16.5 16.0152C15.5532 16.0152 14.7857 15.2477 14.7857 14.3009C14.7857 13.3541 15.5532 12.5866 16.5 12.5866C17.4468 12.5866 18.2143 13.3541 18.2143 14.3009ZM22.3286 16.0152C23.2753 16.0152 24.0429 15.2477 24.0429 14.3009C24.0429 13.3541 23.2753 12.5866 22.3286 12.5866C21.3818 12.5866 20.6143 13.3541 20.6143 14.3009C20.6143 15.2477 21.3818 16.0152 22.3286 16.0152Z" fill="white"/>
</g>
<defs>
<filter id="filter0_d_10983_14629" x="0.5" y="0.17375" width="32" height="30.7832" filterUnits="userSpaceOnUse" color-interpolation-filters="sRGB">
<feFlood flood-opacity="0" result="BackgroundImageFix"/>
<feColorMatrix in="SourceAlpha" type="matrix" values="0 0 0 0 0 0 0 0 0 0 0 0 0 0 0 0 0 0 127 0" result="hardAlpha"/>
<feOffset dy="0.33"/>
<feGaussianBlur stdDeviation="2"/>
<feColorMatrix type="matrix" values="0 0 0 0 0 0 0 0 0 0 0 0 0 0 0 0 0 0 0.1 0"/>
<feBlend mode="normal" in2="BackgroundImageFix" result="effect1_dropShadow_10983_14629"/>
<feBlend mode="normal" in="SourceGraphic" in2="effect1_dropShadow_10983_14629" result="shape"/>
</filter>
</defs>
</svg>
