<svg width="33" height="26" viewBox="0 0 33 26" fill="none" xmlns="http://www.w3.org/2000/svg">
<g filter="url(#filter0_d_10983_14640)">
<path d="M28.2677 13.4326C28.5704 13.1872 28.5784 12.7631 28.2852 12.5087L18.9289 4.38984C18.4819 4.00196 17.7352 4.28636 17.7352 4.84449V8.23363C14.2379 8.1851 11.6104 9.00634 9.65777 10.2649C7.67463 11.5431 6.41107 13.2571 5.63244 14.9184C4.85453 16.5782 4.55475 18.1974 4.50701 19.3076C4.48347 19.855 4.51983 20.3069 4.60721 20.583C4.62954 20.6535 4.65971 20.7276 4.70308 20.7931C4.74126 20.8507 4.82203 20.9511 4.96879 20.993C5.14537 21.0434 5.29525 20.9787 5.38212 20.9117C5.46052 20.8513 5.51321 20.7734 5.54967 20.7079L5.5543 20.6996L5.55803 20.6918L5.55838 20.691L5.55928 20.6892L5.56646 20.6752C5.57341 20.6618 5.58471 20.6407 5.60071 20.6125C5.6327 20.5562 5.68344 20.4718 5.75559 20.3653C5.89994 20.1524 6.12971 19.8519 6.46627 19.512C7.13855 18.8329 8.23903 17.9944 9.94319 17.3824C10.9132 17.0341 12.5301 16.8755 14.1154 16.8499C15.6282 16.8254 17.0391 16.9226 17.7352 17.0603V20.5488C17.7352 21.0968 18.4585 21.3853 18.9114 21.0181L28.2677 13.4326Z" fill="#FBFBFB"/>
<path d="M25.3853 12.5302C26.0612 11.8249 25.3853 10.8187 25.3853 10.8187L24.2191 8.98275L18.9289 4.38984C18.4819 4.00196 17.7352 4.28636 17.7352 4.84449V8.23363C14.2379 8.1851 11.6104 9.00634 9.65777 10.2649C7.67463 11.5431 6.41107 13.2571 5.63244 14.9184C4.85453 16.5782 4.55475 18.1974 4.50701 19.3076C4.48347 19.855 4.51983 20.3069 4.60721 20.583C4.62954 20.6535 4.65971 20.7276 4.70308 20.7931C4.74126 20.8507 4.82203 20.9511 4.96879 20.993C5.14537 21.0434 5.29525 20.9787 5.38212 20.9117C5.46052 20.8513 5.51321 20.7734 5.54967 20.7079L5.5543 20.6996L5.55803 20.6918L5.55838 20.691L5.55928 20.6892L5.56646 20.6752C5.57341 20.6618 5.58471 20.6407 5.60071 20.6125C5.6327 20.5562 5.68344 20.4718 5.75559 20.3653C5.89994 20.1524 6.12971 19.8519 6.46627 19.512C7.13855 18.8329 10.8687 16.4566 12.9815 15.5082C14.7421 14.5598 17.7352 13.9275 17.7352 13.9275V17.7212C17.7352 18.2691 18.4585 18.5577 18.9114 18.1905L25.3853 12.5302Z" fill="white"/>
</g>
<defs>
<filter id="filter0_d_10983_14640" x="0.5" y="0.540938" width="32" height="24.9707" filterUnits="userSpaceOnUse" color-interpolation-filters="sRGB">
<feFlood flood-opacity="0" result="BackgroundImageFix"/>
<feColorMatrix in="SourceAlpha" type="matrix" values="0 0 0 0 0 0 0 0 0 0 0 0 0 0 0 0 0 0 127 0" result="hardAlpha"/>
<feOffset dy="0.33"/>
<feGaussianBlur stdDeviation="2"/>
<feColorMatrix type="matrix" values="0 0 0 0 0 0 0 0 0 0 0 0 0 0 0 0 0 0 0.1 0"/>
<feBlend mode="normal" in2="BackgroundImageFix" result="effect1_dropShadow_10983_14640"/>
<feBlend mode="normal" in="SourceGraphic" in2="effect1_dropShadow_10983_14640" result="shape"/>
</filter>
</defs>
</svg>
