<svg width="22" height="22" viewBox="0 0 22 22" fill="none" xmlns="http://www.w3.org/2000/svg">
<path d="M21.4766 11.1484C21.4766 11.8826 21.3002 12.5635 20.9475 13.1869C20.5947 13.8104 20.123 14.2984 19.5283 14.6389C19.5447 14.7496 19.5529 14.9219 19.5529 15.1557C19.5529 16.2672 19.1797 17.2105 18.4414 17.9898C17.699 18.7732 16.8049 19.1629 15.759 19.1629C15.2914 19.1629 14.8443 19.0768 14.4219 18.9045C14.0938 19.5771 13.6221 20.1186 13.0027 20.5328C12.3875 20.9512 11.7107 21.1562 10.9766 21.1562C10.226 21.1562 9.54512 20.9553 8.93809 20.5451C8.32695 20.1391 7.85937 19.5936 7.53125 18.9045C7.10879 19.0768 6.66582 19.1629 6.19414 19.1629C5.14824 19.1629 4.25 18.7732 3.49941 17.9898C2.74883 17.2105 2.37559 16.2631 2.37559 15.1557C2.37559 15.0326 2.39199 14.8604 2.4207 14.6389C1.82598 14.2943 1.3543 13.8104 1.00156 13.1869C0.65293 12.5635 0.476562 11.8826 0.476562 11.1484C0.476562 10.3691 0.673437 9.65137 1.06309 9.00332C1.45273 8.35527 1.97773 7.87539 2.63398 7.56367C2.46172 7.09609 2.37559 6.62441 2.37559 6.15684C2.37559 5.04941 2.74883 4.10195 3.49941 3.32266C4.25 2.54336 5.14824 2.14961 6.19414 2.14961C6.66172 2.14961 7.10879 2.23574 7.53125 2.40801C7.85937 1.73535 8.33105 1.19395 8.95039 0.779687C9.56563 0.36543 10.2424 0.15625 10.9766 0.15625C11.7107 0.15625 12.3875 0.36543 13.0027 0.775586C13.618 1.18984 14.0938 1.73125 14.4219 2.40391C14.8443 2.23164 15.2873 2.14551 15.759 2.14551C16.8049 2.14551 17.699 2.53516 18.4414 3.31855C19.1838 4.10195 19.5529 5.04531 19.5529 6.15273C19.5529 6.66953 19.475 7.13711 19.3191 7.55957C19.9754 7.87129 20.5004 8.35117 20.89 8.99922C21.2797 9.65137 21.4766 10.3691 21.4766 11.1484ZM10.5295 14.3107L14.8648 7.81797C14.9756 7.6457 15.0084 7.45703 14.9715 7.25605C14.9305 7.05508 14.8279 6.89512 14.6557 6.78848C14.4834 6.67773 14.2947 6.64082 14.0938 6.66953C13.8887 6.70234 13.7246 6.80078 13.6016 6.97305L9.78301 12.7152L8.02344 10.9598C7.86758 10.8039 7.68711 10.7301 7.48613 10.7383C7.28105 10.7465 7.10469 10.8203 6.94883 10.9598C6.80938 11.0992 6.73965 11.2756 6.73965 11.4889C6.73965 11.698 6.80938 11.8744 6.94883 12.018L9.36465 14.4338L9.48359 14.5281C9.62305 14.6225 9.7666 14.6676 9.90605 14.6676C10.1809 14.6635 10.39 14.5486 10.5295 14.3107Z" fill="#3B3544"/>
</svg>
