<svg width="11" height="10" viewBox="0 0 11 10" fill="none" xmlns="http://www.w3.org/2000/svg">
<path d="M10.5195 5.02734C10.5195 5.34199 10.4355 5.63379 10.2676 5.90098C10.0996 6.16816 9.875 6.37734 9.5918 6.52324C9.59961 6.5707 9.60352 6.64453 9.60352 6.74473C9.60352 7.22109 9.42578 7.62539 9.07422 7.95937C8.7207 8.29512 8.29492 8.46211 7.79688 8.46211C7.57422 8.46211 7.36133 8.42519 7.16016 8.35137C7.00391 8.63965 6.7793 8.87168 6.48438 9.04922C6.19141 9.22851 5.86914 9.31641 5.51953 9.31641C5.16211 9.31641 4.83789 9.23027 4.54883 9.05449C4.25781 8.88047 4.03516 8.64668 3.87891 8.35137C3.67773 8.42519 3.4668 8.46211 3.24219 8.46211C2.74414 8.46211 2.31641 8.29512 1.95898 7.95937C1.60156 7.62539 1.42383 7.21934 1.42383 6.74473C1.42383 6.69199 1.43164 6.61816 1.44531 6.52324C1.16211 6.37559 0.9375 6.16816 0.769531 5.90098C0.603516 5.63379 0.519531 5.34199 0.519531 5.02734C0.519531 4.69336 0.613281 4.38574 0.798828 4.10801C0.984375 3.83027 1.23438 3.62461 1.54688 3.49102C1.46484 3.29063 1.42383 3.08848 1.42383 2.88809C1.42383 2.41348 1.60156 2.00742 1.95898 1.67344C2.31641 1.33945 2.74414 1.1707 3.24219 1.1707C3.46484 1.1707 3.67773 1.20762 3.87891 1.28145C4.03516 0.993164 4.25977 0.761133 4.55469 0.583594C4.84766 0.406055 5.16992 0.316406 5.51953 0.316406C5.86914 0.316406 6.19141 0.406055 6.48438 0.581836C6.77734 0.759375 7.00391 0.991406 7.16016 1.27969C7.36133 1.20586 7.57227 1.16895 7.79688 1.16895C8.29492 1.16895 8.7207 1.33594 9.07422 1.67168C9.42773 2.00742 9.60352 2.41172 9.60352 2.88633C9.60352 3.10781 9.56641 3.3082 9.49219 3.48926C9.80469 3.62285 10.0547 3.82852 10.2402 4.10625C10.4258 4.38574 10.5195 4.69336 10.5195 5.02734ZM5.30664 6.38262L7.37109 3.6C7.42383 3.52617 7.43945 3.44531 7.42188 3.35918C7.40234 3.27305 7.35352 3.20449 7.27148 3.15879C7.18945 3.11133 7.09961 3.09551 7.00391 3.10781C6.90625 3.12188 6.82813 3.16406 6.76953 3.23789L4.95117 5.69883L4.11328 4.94648C4.03906 4.87969 3.95312 4.84805 3.85742 4.85156C3.75977 4.85508 3.67578 4.88672 3.60156 4.94648C3.53516 5.00625 3.50195 5.08184 3.50195 5.17324C3.50195 5.26289 3.53516 5.33848 3.60156 5.4L4.75195 6.43535L4.80859 6.47578C4.875 6.51621 4.94336 6.53555 5.00977 6.53555C5.14062 6.53379 5.24023 6.48457 5.30664 6.38262Z" fill="#0261FE"/>
</svg>
